<?xml version="1.0" encoding="utf-8"?>
<!-- Generator: Adobe Illustrator 24.1.0, SVG Export Plug-In . SVG Version: 6.00 Build 0)  -->
<svg version="1.1" id="Layer_1" xmlns="http://www.w3.org/2000/svg" xmlns:xlink="http://www.w3.org/1999/xlink" x="0px" y="0px"
	 viewBox="0 0 1610.87 234.9" style="enable-background:new 0 0 1610.87 234.9;" xml:space="preserve">
<style type="text/css">
	.st0{fill-rule:evenodd;clip-rule:evenodd;}
</style>
<path class="st0" d="M1283.37,49.47c17.59,0,7.51-0.85,25.02,0.25c15.58,0.98,24.19,9.23,24.78,24.83c1.05,27.86,1.05,55.82,0,83.67
	c-0.59,15.59-9.32,23.04-24.77,25.04c-5.2,0.67-8.64,1.06-13.89,1.08c-25.1,0.11-29.52,0.11-54.61,0
	c-5.24-0.02-10.51-0.45-15.71-1.13c-14.31-1.87-22.79-8.28-23.4-22.62c-1.25-29.43-1.24-58.98-0.01-88.41
	c0.6-14.33,9.01-21.61,23.41-22.44c17.93-1.03,41.18-0.25,59.17-0.25C1283.37,49.5,1283.37,49.49,1283.37,49.47z M1283.06,164.84
	c12.34,0-3.05,0.08,9.29-0.02c16.31-0.13,22.21-5.66,22.46-21.72c0.27-17.59,0.27-35.2,0-52.79c-0.25-16.15-6.14-21.94-22.22-22.04
	c-24.88-0.15-27.25-0.17-52.13,0c-15.92,0.11-21.76,5.71-22.05,21.52c-0.33,18-0.32,36,0,54c0.28,15.46,6.1,20.87,21.8,21.02
	C1252.76,164.93,1270.52,164.83,1283.06,164.84z"/>
<path class="st0" d="M477.78,116.53c0-19.22-0.03-38.45,0.01-57.67c0.02-8.29,1.82-10.09,9.89-10.1c36.83-0.01,65.52-0.01,102.35,0
	c9.16,0,14.17,8.47,9,16.15c-1.48,2.2-5.78,3.48-8.8,3.5c-29.94,0.25-51.76,0.11-81.71,0.17c-12.63,0.03-10.74-1.25-10.87,11.09
	c-0.07,6.88,0.3,13.78-0.11,20.63c-0.31,5.24,1.23,6.95,6.72,6.9c29.94-0.27,49.44,0.13,79.38-0.25
	c11.96-0.15,11.7,5.88,10.64,13.95c-0.63,4.8-4.81,5.34-8.9,5.34c-23.47-0.01-36.48,0-59.96,0c-7.28,0-14.58,0.21-21.85-0.08
	c-4.36-0.17-6.19,1.02-6.02,5.73c0.33,9.09,0.35,18.21,0,27.31c-0.19,5.02,1.8,6.1,6.41,6.08c31.16-0.16,54.84-0.09,86.01-0.08
	c9.63,0,13.84,5.35,10.39,14.35c-0.91,2.37-4.99,4.85-7.71,4.96c-12.93,0.52-18.42,0.24-31.37,0.24c-24.48,0-48.96,0.01-73.45-0.01
	c-8.17,0-10.01-1.79-10.03-9.96C477.75,155.38,477.78,135.96,477.78,116.53z"/>
<path class="st0" d="M350.17,68.19c0,3.42,0,5.83,0,8.24c0,32.38,0,64.76-0.02,97.14c-0.01,9.74-6.2,14.27-15.08,10.16
	c-2.42-1.12-4.5-5.69-4.57-8.72c-0.42-18.61-0.21-37.23-0.21-55.86c0-14.57,0-29.14,0-43.71c0-2.17,0-4.35,0-7.26
	c-5.11,0-9.51,0-13.91,0c-9.72,0-19.43,0.04-29.14-0.01c-8.08-0.05-9.71-1.83-9.67-10.24c0.04-7.7,1.89-9.55,9.75-9.55
	c35.42-0.01,70.83-0.02,106.25,0c7.44,0,9.2,1.85,9.24,9.36c0.05,8.72-1.37,10.39-9.4,10.42C379.29,68.23,365.16,68.19,350.17,68.19
	z"/>
<path class="st0" d="M977.69,68.19c0,3.42,0,5.83,0,8.24c0,32.38,0,64.76-0.02,97.14c0,9.74-6.2,14.27-15.08,10.16
	c-2.42-1.12-4.5-5.69-4.57-8.72c-0.41-18.61-0.21-37.23-0.21-55.86c0-14.57,0-29.14,0-43.71c0-2.17,0-4.35,0-7.26
	c-5.11,0-9.51,0-13.91,0c-9.71,0-19.43,0.04-29.14-0.01c-8.08-0.05-9.71-1.83-9.67-10.24c0.04-7.7,1.89-9.55,9.75-9.55
	c35.42-0.01,70.83-0.02,106.25,0c7.43,0,9.2,1.85,9.24,9.36c0.05,8.72-1.38,10.39-9.4,10.42
	C1006.81,68.23,992.68,68.19,977.69,68.19z"/>
<path class="st0" d="M1105.09,116.74c0-19.21-0.04-38.42,0.01-57.62c0.02-9.4,7.05-14.02,15.43-9.52c2.28,1.22,4.05,5.49,4.12,8.41
	c0.38,17.18,0.19,34.37,0.19,51.55c0,21.63,0.02,43.27-0.01,64.9c-0.01,9.35-8.13,14.3-16.02,9.27c-2.11-1.35-3.51-5.35-3.56-8.16
	C1104.96,155.97,1105.1,136.35,1105.09,116.74z"/>
<path class="st0" d="M201.93,182.25c-0.53,0.16-0.83,0.53-5.91,1.62c-1,0.22-3.22,0.7-7.53,0.57c-6.18-0.19-14.64-1.82-18.81-6.29
	c-31.06-33.29-62.27-66.44-93.4-99.67c-1.81-2.21-2.88-3.52-4.5-5.51c-0.65-0.89-2.07-0.45-2.07,1.05c0,2.22,0.02,3.53,0.02,5.65
	c-0.02,31.36,0,62.73-0.02,94.1c0,9.74-8.52,14.95-16.82,9.74c-2.2-1.38-3.55-5.72-3.57-8.71c-0.24-36.22-0.15-72.44-0.15-108.66
	c0-3.24,0.16-6.53,0.11-9.76c-0.08-5.25,1.89-7.59,7.15-7.98c1.89-0.14,3.01-0.06,3.96-0.05c13.68,0.14,21.15,3.51,30.28,13.62
	c34.85,38.59,70.63,76.35,106.05,114.42C198.1,177.86,199.4,179.39,201.93,182.25z"/>
<path class="st0" d="M201.93,151.57c-6.46-6.96-13.53-14.42-19.51-21.16c-0.92-1.03-1.1-2.99-1.1-4.53
	c-0.06-23.02-0.09-46.05-0.01-69.08c0.03-6.53,2.04-8.2,9.08-8.27c8.93-0.1,11.5,1.39,11.53,7.72c0.12,30.7,0.05,61.4,0.01,92.1
	C201.94,148.87,201.93,150.22,201.93,151.57z"/>
<path class="st0" d="M829.64,182.25c-0.53,0.16-0.83,0.53-5.91,1.62c-1,0.22-3.22,0.7-7.53,0.57c-6.18-0.19-14.64-1.82-18.81-6.29
	c-31.06-33.29-62.27-66.44-93.4-99.67c-1.81-2.21-2.88-3.52-4.5-5.51c-0.65-0.89-2.07-0.45-2.07,1.05c0,2.22,0.02,3.53,0.02,5.65
	c-0.02,31.36,0,62.73-0.02,94.1c0,9.74-8.52,14.95-16.82,9.74c-2.2-1.38-3.55-5.72-3.57-8.71c-0.24-36.22-0.15-72.44-0.15-108.66
	c0-3.24,0.16-6.53,0.11-9.76c-0.08-5.25,1.89-7.59,7.15-7.98c1.89-0.14,3.01-0.06,3.96-0.05c13.68,0.14,21.15,3.51,30.28,13.62
	c34.85,38.59,70.63,76.35,106.05,114.42C825.81,177.86,827.11,179.39,829.64,182.25z"/>
<path class="st0" d="M829.64,151.57c-6.46-6.96-13.53-14.42-19.51-21.16c-0.92-1.03-1.1-2.99-1.1-4.53
	c-0.06-23.02-0.1-46.05-0.01-69.08c0.03-6.53,2.04-8.2,9.08-8.27c8.93-0.1,11.51,1.39,11.53,7.72c0.12,30.7,0.05,61.4,0.01,92.1
	C829.65,148.87,829.64,150.22,829.64,151.57z"/>
<path class="st0" d="M1561.65,182.25c-0.53,0.16-0.83,0.53-5.91,1.62c-1,0.22-3.22,0.7-7.53,0.57c-6.19-0.19-14.64-1.82-18.81-6.29
	c-31.06-33.29-62.27-66.44-93.4-99.67c-1.81-2.21-2.88-3.52-4.5-5.51c-0.65-0.89-2.07-0.45-2.07,1.05c0,2.22,0.02,3.53,0.02,5.65
	c-0.02,31.36,0,62.73-0.02,94.1c0,9.74-8.52,14.95-16.82,9.74c-2.2-1.38-3.55-5.72-3.57-8.71c-0.24-36.22-0.15-72.44-0.15-108.66
	c0-3.24,0.16-6.53,0.11-9.76c-0.08-5.25,1.89-7.59,7.15-7.98c1.89-0.14,3.01-0.06,3.96-0.05c13.68,0.14,21.15,3.51,30.28,13.62
	c34.85,38.59,70.63,76.35,106.05,114.42C1557.82,177.86,1559.11,179.39,1561.65,182.25z"/>
<path class="st0" d="M1561.65,151.57c-6.46-6.96-13.53-14.42-19.51-21.16c-0.92-1.03-1.1-2.99-1.1-4.53
	c-0.06-23.02-0.1-46.05-0.01-69.08c0.03-6.53,2.04-8.2,9.08-8.27c8.93-0.1,11.5,1.39,11.53,7.72c0.12,30.7,0.05,61.4,0.01,92.1
	C1561.65,148.87,1561.65,150.22,1561.65,151.57z"/>
</svg>
