<?xml version="1.0" encoding="utf-8"?>
<!-- Generator: Adobe Illustrator 24.1.0, SVG Export Plug-In . SVG Version: 6.00 Build 0)  -->
<svg version="1.1" id="Layer_1" xmlns="http://www.w3.org/2000/svg" xmlns:xlink="http://www.w3.org/1999/xlink" x="0px" y="0px"
	 viewBox="0 0 989.51 989.51" style="enable-background:new 0 0 989.51 989.51;" xml:space="preserve">
<style type="text/css">
	.st0{fill:#061F3A;}
	.st1{fill:#FFFFFF;}
	.st2{fill:#FFFFFF;stroke:#FFFFFF;stroke-width:0.3;stroke-miterlimit:10;}
	.st3{fill:#04203B;}
	.st4{fill:#161616;}
	.st5{fill:none;stroke:#1762F6;stroke-width:7;stroke-miterlimit:10;}
	.st6{fill:none;stroke:#FFFFFF;stroke-width:7;stroke-miterlimit:10;}
</style>
<g>
	<g>
		<path class="st1" d="M307.71,469.92l-1.55-1.58c53.84-52.55,124.96-81.53,200.24-81.58c0.07,0,0.16,0,0.23,0
			c75.19,0,146.24,28.84,200.11,81.24l-1.54,1.59c-53.45-51.99-123.96-80.61-198.57-80.61c-0.08,0-0.15,0-0.23,0
			C431.7,389.03,361.13,417.78,307.71,469.92z"/>
		<path class="st1" d="M307.67,472.88l-2.99-6.04l0,0c54.24-52.94,125.87-82.13,201.71-82.18c75.97,0,147.56,29.06,201.81,81.83l0,0
			l-2.96,6.06l-1.5-1.46c-53.05-51.6-123.05-80.02-197.11-80.02c-74.38,0.06-144.42,28.59-197.46,80.35L307.67,472.88z"/>
	</g>
</g>
<g>
	<g>
		<path class="st1" d="M702.68,479.18c-108.1-108.1-284-108.1-392.1,0l-0.78-0.78c108.53-108.53,285.13-108.53,393.66,0
			L702.68,479.18z"/>
		<path class="st1" d="M702.67,480.07l-0.45-0.44c-52.16-52.17-121.63-80.89-195.6-80.89c-73.97,0-143.44,28.73-195.6,80.89
			l-0.45,0.44l-1.67-1.67l0.44-0.45c108.78-108.78,285.77-108.78,394.56,0l0.44,0.45L702.67,480.07z"/>
	</g>
</g>
<g>
	<g>
		<path class="st1" d="M696.49,483.98c-49.64-49.64-115.62-77.55-185.79-78.61l0.02-1.11c70.46,1.06,136.72,29.1,186.56,78.94
			L696.49,483.98z"/>
		<path class="st1" d="M696.49,484.87l-0.45-0.44c-49.51-49.52-115.34-77.37-185.35-78.43l-0.63-0.01l0.04-2.36l0.63,0.01
			c70.63,1.07,137.04,29.17,186.99,79.12l0.44,0.45L696.49,484.87z"/>
	</g>
</g>
<g>
	<g>
		<path class="st1" d="M316.77,483.98l-0.78-0.78c49.98-49.98,116.43-78.02,187.1-78.94l0.01,1.11
			C432.72,406.28,366.54,434.2,316.77,483.98z"/>
		<path class="st1" d="M316.76,484.87l-1.67-1.67l0.44-0.45c50.11-50.1,116.71-78.2,187.54-79.13l0.63-0.01l0.02,2.37l-0.63,0.01
			c-70.22,0.91-136.23,28.77-185.89,78.44L316.76,484.87z"/>
	</g>
</g>
<g>
	<g>
		<path class="st1" d="M652.95,521.28c-33.43-33.43-75.85-54.14-122.67-59.88l0.27-2.2c47.31,5.81,90.18,26.73,123.96,60.52
			L652.95,521.28z"/>
		<path class="st1" d="M652.95,522.77l-0.74-0.74c-33.26-33.27-75.47-53.87-122.05-59.59l-1.04-0.13l0.52-4.28l1.04,0.13
			c47.54,5.83,90.62,26.86,124.58,60.81l0.74,0.74L652.95,522.77z M531.45,460.48c46.29,5.9,88.27,26.39,121.5,59.31l0.08-0.08
			c-33.25-32.94-75.25-53.44-121.56-59.35L531.45,460.48z"/>
	</g>
</g>
<g>
	<g>
		<path class="st1" d="M351.8,521.77l-1.56-1.56c35.82-35.82,83.34-57.66,133.79-61.49l0.17,2.21
			C434.27,464.71,387.25,486.32,351.8,521.77z"/>
		<path class="st1" d="M351.81,523.25l-3.05-3.05l0.74-0.74c36.01-36,83.75-57.95,134.45-61.79l1.05-0.08l0.33,4.3l-1.05,0.08
			c-49.68,3.77-96.46,25.27-131.73,60.55L351.81,523.25z M351.73,520.2l0.08,0.08c35.29-34.94,81.83-56.33,131.26-60.33l-0.01-0.11
			C433.6,463.85,387.04,485.25,351.73,520.2z"/>
	</g>
</g>
<g>
	<g>
		<path class="st1" d="M647,526.13c-31.86-31.86-72.23-51.91-116.76-57.97l0.15-1.1c44.77,6.1,85.36,26.25,117.39,58.29L647,526.13z
			"/>
		<path class="st1" d="M647,527.01l-0.45-0.44c-31.76-31.76-72.01-51.74-116.4-57.79l-0.62-0.09l0.32-2.35l0.62,0.09
			c44.91,6.12,85.62,26.34,117.75,58.46l0.44,0.45L647,527.01z"/>
	</g>
</g>
<g>
	<g>
		<path class="st1" d="M358.01,526.13l-0.78-0.78c34.11-34.11,79.33-55.21,127.31-59.39l0.1,1.1
			C436.92,471.22,391.95,492.2,358.01,526.13z"/>
		<path class="st1" d="M358.01,527.01l-1.68-1.67l0.45-0.45c34.22-34.22,79.57-55.38,127.71-59.57l0.63-0.05l0.2,2.36l-0.63,0.05
			c-47.58,4.15-92.41,25.06-126.23,58.89L358.01,527.01z"/>
	</g>
</g>
<g>
	<g>
		<path class="st1" d="M642.43,530.69c-30.08-30.08-68.14-49.35-110.07-55.71l0.16-1.09c42.16,6.4,80.44,25.77,110.69,56.02
			L642.43,530.69z"/>
		<path class="st1" d="M642.44,531.58l-0.45-0.44c-29.99-29.99-67.93-49.19-109.72-55.53l-0.62-0.09l0.35-2.34l0.62,0.09
			c42.3,6.42,80.7,25.85,111.04,56.2l0.45,0.45L642.44,531.58z"/>
	</g>
</g>
<g>
	<g>
		<path class="st1" d="M362.58,530.69l-0.78-0.78c32.38-32.38,75.26-52.72,120.74-57.29l0.11,1.1
			C437.42,478.26,394.78,498.49,362.58,530.69z"/>
		<path class="st1" d="M362.58,531.58l-1.68-1.67l0.45-0.45c32.49-32.48,75.5-52.89,121.13-57.47l0.62-0.06l0.25,2.35l-0.63,0.07
			c-45.09,4.52-87.59,24.68-119.69,56.78L362.58,531.58z"/>
	</g>
</g>
<g>
	<g>
		<path class="st1" d="M504.94,681.21c0.84,0.84,2.2,0.84,3.05,0c17.2-17.2,175.98-175.93,182.02-181.13
			c5.07-4.37,6.94,5.54,7.51,9.82c0.14,1.06,1.05,1.84,2.12,1.81l6.37-0.14c1.15-0.02,2.06-0.97,2.05-2.11l-0.41-42.06
			c0-0.3-0.36-0.44-0.57-0.23L506.32,668.34l-0.15-0.29L305.64,467.08c-0.21-0.21-0.57-0.06-0.57,0.23l-0.41,42.05
			c-0.01,1.15,0.91,2.1,2.06,2.12l6.35,0.14c1.08,0.02,1.99-0.75,2.13-1.82c0.56-4.29,2.44-14.18,7.5-9.81L504.94,681.21z"/>
		<path class="st1" d="M506.47,682.47c-0.71,0-1.42-0.27-1.97-0.81L322.26,500.44c-0.93-0.8-1.75-1.09-2.48-0.8
			c-1.72,0.66-3.2,4.49-3.95,10.25c-0.18,1.36-1.34,2.37-2.71,2.37c-0.02,0-0.04,0-0.05,0l-6.35-0.14
			c-1.49-0.03-2.69-1.27-2.68-2.76l0.41-42.05c0.01-0.39,0.25-0.74,0.61-0.89c0.36-0.15,0.77-0.07,1.05,0.21l200.3,200.75
			l200.21-200.65c0.27-0.28,0.68-0.37,1.05-0.21c0.36,0.14,0.59,0.49,0.6,0.88l0.41,42.06c0.01,1.49-1.19,2.72-2.67,2.76l-6.37,0.14
			c-1.43,0.1-2.58-0.98-2.75-2.37c-0.76-5.76-2.24-9.59-3.96-10.25c-0.72-0.27-1.55,0-2.51,0.83
			c-6.28,5.41-180.22,179.35-181.98,181.11C507.89,682.2,507.18,682.47,506.47,682.47z M505.38,680.77c0.61,0.6,1.57,0.59,2.17,0
			c1.75-1.76,175.73-175.72,182.05-181.16c1.33-1.15,2.6-1.51,3.78-1.05c2.85,1.09,4.16,6.73,4.76,11.27
			c0.09,0.73,0.71,1.27,1.44,1.27c0.01,0,0.02,0,0.03,0l6.37-0.14c0.8-0.02,1.44-0.68,1.43-1.48l-0.41-41.36L506.14,669.41l-0.48-1
			l-199.96-200.4l-0.41,41.36c-0.01,0.8,0.64,1.47,1.44,1.48l6.35,0.14c0.01,0,0.02,0,0.03,0c0.74,0,1.37-0.55,1.46-1.28
			c0.59-4.54,1.9-10.17,4.75-11.26c1.18-0.45,2.45-0.09,3.78,1.06L505.38,680.77z"/>
	</g>
</g>
<g>
	<g>
		<path class="st1" d="M522.41,359.89l-14.04-11.02c-0.75-0.59-1.8-0.6-2.56-0.03l-12.91,9.65c-1.64,1.23-3.89-0.38-3.26-2.33
			l15.93-49.35c0.63-1.95,3.38-1.94,4,0.01l16.14,50.78C526.33,359.57,524.03,361.17,522.41,359.89z M508.4,346.08l9.72,7.63
			c1.63,1.28,3.93-0.32,3.3-2.29l-11.87-37.34c-0.62-1.95-3.38-1.96-4-0.01l-11.67,36.16c-0.63,1.95,1.62,3.56,3.26,2.33l8.71-6.51
			C506.61,345.48,507.65,345.49,508.4,346.08z"/>
		<path class="st1" d="M523.7,360.98c-0.59,0-1.18-0.2-1.69-0.59l-14.04-11.02c-0.52-0.41-1.25-0.42-1.79-0.02l-12.91,9.65
			c-0.98,0.72-2.24,0.74-3.22,0.04c-0.99-0.71-1.39-1.91-1.01-3.06l15.93-49.34c0.37-1.15,1.39-1.89,2.6-1.89c0,0,0.01,0,0.01,0
			c1.21,0,2.23,0.75,2.6,1.9l16.14,50.78c0.37,1.17-0.04,2.37-1.05,3.07C524.78,360.82,524.24,360.98,523.7,360.98z M507.07,347.79
			c0.6,0,1.19,0.19,1.69,0.58l14.04,11.02c0.64,0.5,1.32,0.36,1.75,0.05c0.43-0.3,0.81-0.89,0.57-1.65l-16.14-50.78
			c-0.24-0.75-0.88-1.03-1.4-1.03c0,0,0,0,0,0c-0.52,0-1.16,0.27-1.4,1.02l-15.93,49.34c-0.24,0.75,0.12,1.35,0.55,1.65
			c0.42,0.3,1.1,0.46,1.74-0.02l12.91-9.65C505.92,347.97,506.49,347.79,507.07,347.79z M519.41,354.8c-0.59,0-1.18-0.2-1.68-0.59
			l-9.72-7.63c-0.52-0.41-1.25-0.42-1.79-0.02l-8.71,6.51c-0.97,0.72-2.24,0.73-3.22,0.04c-0.99-0.71-1.39-1.91-1.01-3.06
			l11.67-36.16c0.37-1.15,1.39-1.89,2.6-1.89c0,0,0,0,0.01,0c1.21,0,2.23,0.75,2.6,1.91l11.87,37.34c0.37,1.17-0.04,2.37-1.04,3.08
			C520.49,354.64,519.95,354.8,519.41,354.8z M508.79,345.59l9.72,7.63c0.63,0.5,1.32,0.35,1.75,0.05c0.43-0.3,0.81-0.89,0.57-1.65
			l-11.87-37.34c-0.24-0.76-0.88-1.03-1.4-1.03h0c-0.52,0-1.16,0.27-1.4,1.02l-11.67,36.16c-0.24,0.75,0.12,1.35,0.55,1.65
			c0.42,0.3,1.1,0.46,1.74-0.02l8.71-6.51C506.45,344.8,507.82,344.82,508.79,345.59L508.79,345.59z"/>
	</g>
</g>
<g>
	<path class="st1" d="M346.85,437.58l8.14-26.49c0.7-2.28,3.17-3.51,5.41-2.69l23.09,8.4L346.85,437.58z M359.12,412.57l-4.85,15.77
		l18.83-10.68L359.12,412.57z"/>
</g>
<g>
	<path class="st1" d="M417.67,403.41l11.27-21.47c1.06-2.01,3.61-2.69,5.52-1.45l20.68,13.35L417.67,403.41z M432.46,384.11
		l-6.82,13l19.31-4.94L432.46,384.11z"/>
</g>
<g>
	<path class="st1" d="M601.13,405.12l-33.15-9.26l19.18-11.54c1.56-0.94,3.58-0.34,4.38,1.29L601.13,405.12z M576.3,394.74
		l18.58,5.19l-6.21-12.63L576.3,394.74z"/>
</g>
<g>
	<path class="st1" d="M667.62,437.45l-31.45-18.68l22.16-5.83c1.59-0.42,3.22,0.54,3.63,2.14L667.62,437.45z M644.31,419.91
		l18.34,10.89l-3.73-14.74L644.31,419.91z"/>
</g>
<g>
	<g>
		<path class="st1" d="M608.55,572.82l-4.79-68.8l-56.6,21.29l-0.35-1.12l-39.98-128.04l-38.87,129.66l-59.73-25.85l-9.7,68.45
			l-2.19-0.31l10.11-71.33l57.95,25.08c1.15,0.5,2.47-0.12,2.83-1.32l39.56-131.95l41.13,131.7c0.36,1.15,1.61,1.76,2.74,1.34
			l55.11-20.73l4.99,71.76L608.55,572.82z"/>
		<path class="st1" d="M607.58,573.94l-0.07-1.05l-4.69-67.4l-56.32,21.18l-0.68-2.18l-38.96-124.76l-38.22,127.5l-1.09-0.47
			l-58.47-25.31l-9.65,68.14l-4.27-0.61l10.45-73.73l59.21,25.63c0.27,0.12,0.58,0.11,0.86-0.01c0.27-0.13,0.47-0.36,0.55-0.64
			L506.78,385l42.15,134.98c0.09,0.28,0.28,0.5,0.54,0.63c0.27,0.14,0.56,0.14,0.82,0.04l56.43-21.22l0.09,1.41l5.06,72.81
			L607.58,573.94z M604.72,502.54l0.09,1.41l4.72,67.76l0.11-0.01l-4.82-69.31l-53.79,20.23c-0.81,0.3-1.72,0.26-2.48-0.12
			c-0.77-0.38-1.37-1.07-1.62-1.89l-40.1-128.43l-38.58,128.66c-0.25,0.85-0.87,1.56-1.67,1.94c-0.81,0.38-1.75,0.39-2.58,0.04
			l-56.69-24.54l-9.77,68.93l0.11,0.01l9.75-68.78l59.91,25.94l39.52-131.82l41.02,131.37L604.72,502.54z"/>
	</g>
</g>
<g>
	<g>
		<polygon class="st1" points="505.06,672.09 506.03,346.1 508.24,346.11 507.3,664.01 603.82,501.9 605.72,503.03 		"/>
		<path class="st1" d="M504.42,674.39l0-2.3l0.97-326.62l3.47,0.01v0.63l-0.93,315.6l95.67-160.68l2.98,1.78l-0.32,0.54
			L504.42,674.39z M506.65,346.73l-0.96,323.06l99.16-166.54l-0.82-0.49l-97.37,163.55l0-2.3l0.94-317.27L506.65,346.73z"/>
	</g>
</g>
<g>
	<g>
		<polygon class="st1" points="509.43,675.83 406.39,498.92 408.3,497.81 502.93,660.27 466.2,524.59 468.33,524.01 		"/>
		<path class="st1" d="M511.28,680.26L405.53,498.7l2.99-1.75l0.32,0.55l92.23,158.34l-35.64-131.68l3.35-0.91L511.28,680.26z
			 M407.25,499.15L507.58,671.4l-39.69-146.61l-0.92,0.25l37.81,139.66l-96.71-166.03L407.25,499.15z"/>
	</g>
</g>
<g>
	<g>
		
			<rect x="451.98" y="594.85" transform="matrix(0.2773 -0.9608 0.9608 0.2773 -191.6999 937.0558)" class="st1" width="150.1" height="2.21"/>
		<path class="st1" d="M507.67,669.13l-3.34-0.96l0.17-0.61l41.88-144.79l3.34,0.96l-0.17,0.61L507.67,669.13z M505.89,667.31
			l0.92,0.26l41.35-142.98l-0.92-0.27L505.89,667.31z"/>
	</g>
</g>
<g>
	<g>
		<polygon class="st1" points="470.89,539 417.22,515.77 417.66,514.75 471.33,537.98 		"/>
		<polygon class="st1" points="471.97,541.76 420.03,519.27 416.56,511.99 469.95,535.1 		"/>
	</g>
</g>
<g>
	<g>
		<polygon class="st1" points="474.83,553.55 426.89,532.8 427.33,531.78 475.27,552.53 		"/>
		<polygon class="st1" points="475.92,556.31 429.85,536.37 426.24,529.03 473.73,549.58 		"/>
	</g>
</g>
<g>
	<g>
		<polygon class="st1" points="478.65,567.66 436.59,549.46 437.03,548.45 479.09,566.65 		"/>
		<polygon class="st1" points="479.73,570.42 440.16,553.29 435.94,545.69 477.9,563.85 		"/>
	</g>
</g>
<g>
	<g>
		
			<rect x="464.32" y="554.49" transform="matrix(0.3972 -0.9177 0.9177 0.3972 -246.6245 772.6461)" class="st1" width="1.11" height="39.16"/>
		<polygon class="st1" points="483.71,585.11 449.05,570.11 446.03,563.02 481.95,578.57 		"/>
	</g>
</g>
<g>
	<g>
		<polygon class="st1" points="486.6,597.04 456.79,584.14 457.23,583.12 487.04,596.03 		"/>
		<polygon class="st1" points="487.69,599.8 459.52,587.61 456.13,580.36 485.65,593.14 		"/>
	</g>
</g>
<g>
	<g>
		<polygon class="st1" points="490.58,611.73 466.89,601.48 467.33,600.46 491.02,610.72 		"/>
		<polygon class="st1" points="491.67,614.5 469.49,604.89 466.24,597.7 489.71,607.86 		"/>
	</g>
</g>
<g>
	<g>
		
			<rect x="485.1" y="611.61" transform="matrix(0.3972 -0.9177 0.9177 0.3972 -277.481 820.2047)" class="st1" width="1.11" height="19.46"/>
		<polygon class="st1" points="495.44,628.47 478.97,621.34 475.84,614.2 493.53,621.86 		"/>
	</g>
</g>
<g>
	<g>
		<polygon class="st1" points="498.33,640.4 486.6,635.32 487.04,634.3 498.77,639.38 		"/>
		<polygon class="st1" points="499.43,643.16 488.67,638.5 485.95,631.55 497.96,636.74 		"/>
	</g>
</g>
<g>
	<g>
		
			<rect x="499.46" y="651.09" transform="matrix(0.3973 -0.9177 0.9177 0.3973 -298.8292 853.0231)" class="st1" width="1.11" height="5.85"/>
		
			<rect x="498.83" y="650.46" transform="matrix(0.3971 -0.9178 0.9178 0.3971 -298.7893 853.1848)" class="st1" width="2.37" height="7.1"/>
	</g>
</g>
<g>
	<g>
		<path class="st1" d="M507.48,312.54l-0.37,33.94l15.09,11.85c1.04,0.82,2.51-0.2,2.11-1.46l-14.21-44.71
			C509.64,310.7,507.5,311.02,507.48,312.54z"/>
		<path class="st1" d="M507.75,346.18l14.85,11.65c0.38,0.29,0.74,0.1,0.84,0.03c0.1-0.07,0.42-0.34,0.27-0.8l-14.21-44.71
			c-0.14-0.43-0.49-0.55-0.79-0.49c-0.29,0.04-0.6,0.25-0.6,0.7L507.75,346.18z"/>
	</g>
</g>
<g>
	<g>
		<polygon class="st1" points="539.79,549.24 507.75,446.67 508.63,431.7 542.66,540.66 		"/>
	</g>
</g>
<g>
	<g>
		
			<rect x="520.47" y="472.67" transform="matrix(0.9545 -0.2981 0.2981 0.9545 -131.5905 178.9798)" class="st1" width="1.1" height="96.52"/>
		<polygon class="st1" points="533.5,569.79 506.63,483.74 508.54,472.07 536.54,561.75 		"/>
	</g>
</g>
<g>
	<g>
		
			<rect x="517.25" y="514.97" transform="matrix(0.9545 -0.2981 0.2981 0.9545 -141.225 179.4616)" class="st1" width="1.1" height="75.62"/>
		<polygon class="st1" points="527.17,591.66 506.94,526.88 508.44,513.9 530.06,583.12 		"/>
	</g>
</g>
<g>
	<g>
		
			<rect x="514.16" y="555.11" transform="matrix(0.9545 -0.2981 0.2981 0.9545 -150.5975 179.9533)" class="st1" width="1.1" height="57.26"/>
		<polygon class="st1" points="521.34,613.86 506.92,567.66 508.08,553.62 524.01,604.65 		"/>
	</g>
</g>
<g>
	<g>
		
			<rect x="510.96" y="596.14" transform="matrix(0.9545 -0.2981 0.2981 0.9545 -159.7853 180.3929)" class="st1" width="1.1" height="35.81"/>
		<polygon class="st1" points="514.95,633.93 506.92,608.21 508.08,594.16 517.96,625.78 		"/>
	</g>
</g>
<g>
	<g>
		
			<rect x="508.05" y="636.1" transform="matrix(0.9545 -0.2981 0.2981 0.9545 -168.8298 180.8637)" class="st1" width="1.1" height="15.78"/>
		<polygon class="st1" points="509.05,654.32 506.04,644.68 507.5,631.55 512.09,646.25 		"/>
	</g>
</g>
<g>
	<g>
		<polygon class="st1" points="596.92,579.97 592.86,521.58 593.96,521.5 598.02,579.89 		"/>
		<polygon class="st1" points="594.97,582.21 591.07,526.13 595.91,519.26 600.26,581.84 		"/>
	</g>
</g>
<g>
	<g>
		
			<rect x="583.89" y="539.52" transform="matrix(0.9976 -0.0694 0.0694 0.9976 -37.8239 41.9403)" class="st1" width="1.1" height="51.16"/>
		<polygon class="st1" points="583.72,592.91 580.35,544.45 585.16,537.3 589.01,592.53 		"/>
	</g>
</g>
<g>
	<g>
		
			<rect x="573.57" y="556.51" transform="matrix(0.9976 -0.0694 0.0694 0.9976 -38.8265 41.2677)" class="st1" width="1.1" height="45.08"/>
		<polygon class="st1" points="573.18,603.82 570.2,560.86 575.05,554.29 578.47,603.45 		"/>
	</g>
</g>
<g>
	<g>
		
			<rect x="562.57" y="574.57" transform="matrix(0.9976 -0.0694 0.0694 0.9976 -39.8502 40.5312)" class="st1" width="1.1" height="37.9"/>
		<polygon class="st1" points="561.94,614.71 559.52,579.97 564.31,572.33 567.23,614.33 		"/>
	</g>
</g>
<g>
	<g>
		<polygon class="st1" points="554.26,623.53 551.94,590.3 553.05,590.22 555.36,623.46 		"/>
		<polygon class="st1" points="552.31,625.78 550.11,594.16 554.99,587.97 557.6,625.4 		"/>
	</g>
</g>
<g>
	<g>
		
			<rect x="542.04" y="608.34" transform="matrix(0.9976 -0.0695 0.0695 0.9976 -41.8405 39.1955)" class="st1" width="1.1" height="25.6"/>
		<polygon class="st1" points="540.99,636.19 539.33,612.46 544.21,606.09 546.28,635.82 		"/>
	</g>
</g>
<g>
	<g>
		<polygon class="st1" points="532.76,644.68 531.38,624.83 532.49,624.75 533.87,644.6 		"/>
		<polygon class="st1" points="530.82,646.91 529.53,628.47 534.43,622.51 536.1,646.55 		"/>
	</g>
</g>
<g>
	<g>
		
			<rect x="522.55" y="640.41" transform="matrix(0.9976 -0.0695 0.0695 0.9976 -43.7173 37.9147)" class="st1" width="1.1" height="13.81"/>
		<polygon class="st1" points="521.08,656.48 520.31,645.42 525.12,638.15 526.37,656.11 		"/>
	</g>
</g>
<g>
	<g>
		<polygon class="st1" points="511.79,665.88 511.28,658.59 512.38,658.51 512.89,665.81 		"/>
		<polygon class="st1" points="511.2,666.55 510.61,658.01 512.97,657.84 513.56,666.39 		"/>
	</g>
</g>
<g>
	<polygon class="st1" points="357.7,409.73 365.23,424.63 378.3,417.22 	"/>
</g>
<g>
	<polygon class="st1" points="431.68,381.15 435.85,396.63 450.04,393.01 	"/>
</g>
<g>
	<polygon class="st1" points="589.36,384.94 585.9,399.14 598.01,402.53 	"/>
</g>
<g>
	<polygon class="st1" points="660.07,414.12 652.69,426.73 665.14,434.13 	"/>
</g>
<g>
	<path class="st1" d="M397.93,556.9c0,0-0.54,2.12-1.98,0.68c-1.44-1.44,0.4,3.38,0.4,3.38l2.51-2.03L397.93,556.9z"/>
	<path class="st1" d="M396.07,561.99l-0.31-0.81c-1.46-3.84-0.97-4.15-0.62-4.39c0.37-0.23,0.79-0.12,1.25,0.34
		c0.28,0.27,0.5,0.33,0.5,0.31c0.15-0.04,0.36-0.42,0.43-0.71l0.46-1.71l1.85,4.08L396.07,561.99z M396.21,558.55
		c0.11,0.41,0.26,0.89,0.43,1.37l1.44-1.17l-0.21-0.46c-0.17,0.17-0.39,0.31-0.64,0.38C396.97,558.72,396.62,558.74,396.21,558.55z"
		/>
</g>
<g>
	<path class="st1" d="M609.95,561.78c0,0,0.54,2.12,1.98,0.68c1.44-1.44-0.4,3.38-0.4,3.38l-2.51-2.03L609.95,561.78z"/>
	<path class="st1" d="M611.82,566.88l-3.56-2.88l1.85-4.08l0.46,1.71c0.09,0.32,0.3,0.68,0.43,0.71c-0.02,0.06,0.22-0.03,0.5-0.31
		c0.47-0.46,0.89-0.57,1.25-0.34c0.36,0.23,0.84,0.55-0.62,4.39L611.82,566.88z M609.81,563.63l1.44,1.17
		c0.16-0.48,0.32-0.96,0.43-1.37c-0.41,0.2-0.77,0.19-1.01,0.12c-0.26-0.07-0.47-0.21-0.64-0.38L609.81,563.63z"/>
</g>
</svg>
